# xmcd
#
# Track frame offsets: 
#        151
#        7606
#        13621
#        21639
#        29490
#        39380
#        48295
#        59858
#        68876
#        74399
#        80006
#        88293
#        93849
#        101060
#        112211
#        122662
#        131889
#        140784
#        149184
#        159157
#
# Disc length: 2212 seconds
#
# Revision: 0
# Processed by: cddbd v1.5.2PL0 Copyright (c) Steve Scherf et al.
# Submitted via: ExactAudioCopy v0.95b4
#
DISCID=2c08a214
DTITLE=Various Artist - Sound Traditions - The Golden Age of Bluegrass Tradit
DTITLE=ional B.G. and Mountain Style CD 1
DYEAR=2006
DGENRE=Bluegrass
TTITLE0=01 All Yhe Good Times are Past and Gone - Roy Ross
TTITLE1=02 Clouds Gonna Roll Away - Hylo Brown
TTITLE2=03 Rolling in My Sweet Baby's Arms - Ernie and Mack
TTITLE3=04 Plant Some Flowers On My Grave - Red Smiley 
TTITLE4=05 Smoky Mountain Rag - Mac Martin
TTITLE5=06 Someone To Love - Earl Taylor and Jim McCall
TTITLE6=07 Ghost Train - J.E. Mainer
TTITLE7=08 The Weeping Willow - Ernie and Mack
TTITLE8=09 No Low Down Hanging Around - Hylo Brown
TTITLE9=10 Curly's Breakdown - Curly Fox
TTITLE10=11 Someday We'll Meet Again Sweetheart - Roy Ross
TTITLE11=12 Nine Pound Hammer - Ernie and Mack
TTITLE12=13 Knocking On the Hen House Door - J.E. Mainer
TTITLE13=14 Willow Garden - Red White
TTITLE14=15 Blue Ridge Breakdown - Roy Ross
TTITLE15=16 Ragged But I'm Right - Hylo Brown
TTITLE16=17 Gonna RaiseA Ruckus Tonight- Ernie and Mack
TTITLE17=18 I Only Want A Buddy - Red White
TTITLE18=19 All Quiet Along the Potomic - J.E. Mainer
TTITLE19=20 John Henry - Red White
EXTD=
EXTT0=
EXTT1=
EXTT2=
EXTT3=
EXTT4=
EXTT5=
EXTT6=
EXTT7=
EXTT8=
EXTT9=
EXTT10=
EXTT11=
EXTT12=
EXTT13=
EXTT14=
EXTT15=
EXTT16=
EXTT17=
EXTT18=
EXTT19=
PLAYORDER=
